<?xml version="1.0" standalone="no"?>
<!DOCTYPE svg PUBLIC "-//W3C//DTD SVG 20010904//EN"
 "http://www.w3.org/TR/2001/REC-SVG-20010904/DTD/svg10.dtd">
<svg version="1.0" xmlns="http://www.w3.org/2000/svg"
 width="700.000000pt" height="700.000000pt" viewBox="0 0 700.000000 700.000000"
 preserveAspectRatio="xMidYMid meet">
<metadata>
Created by potrace 1.14, written by Peter Selinger 2001-2017
</metadata>
<g transform="translate(0.000000,700.000000) scale(0.100000,-0.100000)"
fill="#000000" stroke="none">
<path d="M1007 6989 c-523 -77 -929 -489 -997 -1012 -7 -57 -10 -842 -7 -2532
3 -2255 4 -2455 20 -2517 60 -242 159 -421 322 -583 161 -161 345 -263 584
-322 60 -16 271 -17 2516 -20 1690 -3 2475 0 2532 7 291 38 553 180 742 402
121 142 203 304 252 499 l24 94 0 2485 c0 2679 3 2530 -51 2698 -58 177 -153
331 -289 467 -164 164 -340 261 -583 322 -62 16 -260 17 -2537 19 -1358 1
-2496 -2 -2528 -7z m3218 -1537 c462 -89 744 -319 839 -685 65 -248 37 -544
-71 -749 -81 -155 -244 -309 -417 -393 -31 -15 -56 -30 -56 -34 0 -3 37 -16
83 -29 165 -46 330 -147 431 -265 263 -309 326 -870 141 -1257 -164 -340 -545
-565 -1060 -625 -108 -12 -305 -15 -1172 -15 l-1043 0 0 2040 0 2041 1108 -4
c1078 -3 1110 -4 1217 -25z"/>
<path d="M2620 4336 l0 -566 619 0 c692 0 720 2 849 66 42 20 99 60 136 94
112 105 156 221 156 415 0 256 -73 400 -243 481 -142 67 -141 67 -864 71
l-653 4 0 -565z"/>
<path d="M2620 2620 l0 -641 718 3 c709 4 718 4 790 26 118 36 190 78 268 156
79 79 123 158 150 272 23 93 23 285 0 378 -48 201 -203 355 -412 411 -104 28
-275 35 -901 35 l-613 0 0 -640z"/>
</g>
</svg>
